# xmcd CD database file
#
# Track frame offsets:
#	150
#	20895
#	34521
#	47591
#	61359
#	81618
#	94377
#	104928
#	116522
#	126647
#	141352
#	153512
#	168904
#	185859
#	200947
#	206691
#	223255
#	237905
#
# Disc length: 3387 seconds
#
# Revision: 0
# Processed by: cddbd v1.5.2PL0 Copyright (c) Steve Scherf et al.
# Submitted via: CDex 1.74
#
DISCID=290d3912
DTITLE=Sugar and the Josephines - Rhythm is our Business
DYEAR=2013
DGENRE=Jazz
TTITLE0=A Fine Romance
TTITLE1=Solamente una Vez
TTITLE2=Rhythm is our Business
TTITLE3=Von Nun An Ging's Bergab
TTITLE4=Love is Here to Stay
TTITLE5=Sempre
TTITLE6=A Slow Drag with Josephine
TTITLE7=(Nothing's too Good) for my Baby
TTITLE8=Il Conto
TTITLE9=Elisa
TTITLE10=You Don't Know Me
TTITLE11=Horizon
TTITLE12=How High the Moon
TTITLE13=Java Jive
TTITLE14=Bello Ticino
TTITLE15=Gotta Be Jokin'
TTITLE16=I Wanna Be Like You
TTITLE17=Ev'ry Time We Say Goodbye
EXTD=YEAR: 2013
EXTT0=
EXTT1=
EXTT2=
EXTT3=
EXTT4=
EXTT5=
EXTT6=
EXTT7=
EXTT8=
EXTT9=
EXTT10=
EXTT11=
EXTT12=
EXTT13=
EXTT14=
EXTT15=
EXTT16=
EXTT17=
PLAYORDER=
